HIERARCHY
ROOT Hips
{
    OFFSET   0.000000   0.000000   0.000000
    CHANNELS 6 Xposition Yposition Zposition Zrotation Xrotation Yrotation
    JOINT Chest
    {
        OFFSET   0.000000   8.007230   0.000000
        CHANNELS 3 Zrotation Xrotation Yrotation
        JOINT Chest2
        {
            OFFSET   0.000000  22.077100   0.000000
            CHANNELS 3 Zrotation Xrotation Yrotation
            JOINT Neck
            {
                OFFSET   0.000000  23.254800  -0.000021
                CHANNELS 3 Zrotation Xrotation Yrotation
                JOINT Head
                {
                    OFFSET   0.000000  14.370000   1.956610
                    CHANNELS 3 Zrotation Xrotation Yrotation
                    End Site
                    {
                        OFFSET   0.000000  19.566000   0.000000
                    }
                }
            }
            JOINT LeftCollar
            {
                OFFSET   3.911900  19.017000  -0.467063
                CHANNELS 3 Zrotation Xrotation Yrotation
                JOINT LeftShoulder
                {
                    OFFSET  10.383700   0.000000   0.000000
                    CHANNELS 3 Zrotation Xrotation Yrotation
                    JOINT LeftElbow
                    {
                        OFFSET  26.662100   0.001529   0.000325
                        CHANNELS 3 Zrotation Xrotation Yrotation
                        JOINT LeftWrist
                        {
                            OFFSET  28.869000  -0.000011  -0.000096
                            CHANNELS 3 Zrotation Xrotation Yrotation
                            JOINT LeftFinger0
                            {
                                OFFSET   2.044650  -2.323460   3.252850
                                CHANNELS 3 Zrotation Xrotation Yrotation
                                JOINT LeftFinger01
                                {
                                    OFFSET   3.088130   0.000000   0.000000
                                    CHANNELS 3 Zrotation Xrotation Yrotation
                                    JOINT LeftFinger02
                                    {
                                        OFFSET   2.639460   0.000000   0.000000
                                        CHANNELS 3 Zrotation Xrotation Yrotation
                                        End Site
                                        {
                                            OFFSET   2.582190   0.000000   0.000000
                                        }
                                    }
                                }
                            }
                            JOINT LeftFinger1
                            {
                                OFFSET   8.364480   0.000000   3.252850
                                CHANNELS 3 Zrotation Xrotation Yrotation
                                JOINT LeftFinger11
                                {
                                    OFFSET   4.646930   0.000000   0.000000
                                    CHANNELS 3 Zrotation Xrotation Yrotation
                                    JOINT LeftFinger12
                                    {
                                        OFFSET   2.323460   0.000000   0.000000
                                        CHANNELS 3 Zrotation Xrotation Yrotation
                                        End Site
                                        {
                                            OFFSET   2.273050   0.000000   0.000000
                                        }
                                    }
                                }
                            }
                            JOINT LeftFinger2
                            {
                                OFFSET   8.364480   0.000016   1.078090
                                CHANNELS 3 Zrotation Xrotation Yrotation
                                JOINT LeftFinger21
                                {
                                    OFFSET   5.111620   0.000000   0.000000
                                    CHANNELS 3 Zrotation Xrotation Yrotation
                                    JOINT LeftFinger22
                                    {
                                        OFFSET   2.788160   0.000017   0.000000
                                        CHANNELS 3 Zrotation Xrotation Yrotation
                                        End Site
                                        {
                                            OFFSET   2.727660   0.000000   0.000000
                                        }
                                    }
                                }
                            }
                            JOINT LeftFinger3
                            {
                                OFFSET   7.899780   0.000015  -1.078090
                                CHANNELS 3 Zrotation Xrotation Yrotation
                                JOINT LeftFinger31
                                {
                                    OFFSET   4.646920   0.000000   0.000000
                                    CHANNELS 3 Zrotation Xrotation Yrotation
                                    JOINT LeftFinger32
                                    {
                                        OFFSET   2.323470   0.000000   0.000000
                                        CHANNELS 3 Zrotation Xrotation Yrotation
                                        End Site
                                        {
                                            OFFSET   2.273050   0.000000   0.000000
                                        }
                                    }
                                }
                            }
                            JOINT LeftFinger4
                            {
                                OFFSET   7.435090   0.000000  -3.252850
                                CHANNELS 3 Zrotation Xrotation Yrotation
                                JOINT LeftFinger41
                                {
                                    OFFSET   3.717550   0.000000   0.000000
                                    CHANNELS 3 Zrotation Xrotation Yrotation
                                    JOINT LeftFinger42
                                    {
                                        OFFSET   1.858760   0.000000   0.000000
                                        CHANNELS 3 Zrotation Xrotation Yrotation
                                        End Site
                                        {
                                            OFFSET   1.818440   0.000000   0.000000
                                        }
                                    }
                                }
                            }
                        }
                    }
                }
            }
            JOINT RightCollar
            {
                OFFSET  -3.911900  19.017000  -0.467062
                CHANNELS 3 Zrotation Xrotation Yrotation
                JOINT RightShoulder
                {
                    OFFSET -10.383700   0.000015   0.000000
                    CHANNELS 3 Zrotation Xrotation Yrotation
                    JOINT RightElbow
                    {
                        OFFSET -26.662100   0.001341   0.000385
                        CHANNELS 3 Zrotation Xrotation Yrotation
                        JOINT RightWrist
                        {
                            OFFSET -28.869000   0.000025  -0.000080
                            CHANNELS 3 Zrotation Xrotation Yrotation
                            JOINT RightFinger0
                            {
                                OFFSET  -2.044650  -2.323490   3.252850
                                CHANNELS 3 Zrotation Xrotation Yrotation
                                JOINT RightFinger01
                                {
                                    OFFSET  -3.088130   0.000000   0.000000
                                    CHANNELS 3 Zrotation Xrotation Yrotation
                                    JOINT RightFinger02
                                    {
                                        OFFSET  -2.639460   0.000000   0.000000
                                        CHANNELS 3 Zrotation Xrotation Yrotation
                                        End Site
                                        {
                                            OFFSET  -2.582190   0.000000   0.000000
                                        }
                                    }
                                }
                            }
                            JOINT RightFinger1
                            {
                                OFFSET  -8.364480   0.000000   3.252850
                                CHANNELS 3 Zrotation Xrotation Yrotation
                                JOINT RightFinger11
                                {
                                    OFFSET  -4.646930   0.000000   0.000000
                                    CHANNELS 3 Zrotation Xrotation Yrotation
                                    JOINT RightFinger12
                                    {
                                        OFFSET  -2.323470   0.000000   0.000000
                                        CHANNELS 3 Zrotation Xrotation Yrotation
                                        End Site
                                        {
                                            OFFSET  -2.273050   0.000000   0.000000
                                        }
                                    }
                                }
                            }
                            JOINT RightFinger2
                            {
                                OFFSET  -8.364480   0.000000   1.078090
                                CHANNELS 3 Zrotation Xrotation Yrotation
                                JOINT RightFinger21
                                {
                                    OFFSET  -5.111610   0.000000   0.000000
                                    CHANNELS 3 Zrotation Xrotation Yrotation
                                    JOINT RightFinger22
                                    {
                                        OFFSET  -2.788160   0.000000   0.000000
                                        CHANNELS 3 Zrotation Xrotation Yrotation
                                        End Site
                                        {
                                            OFFSET  -2.727660   0.000000   0.000000
                                        }
                                    }
                                }
                            }
                            JOINT RightFinger3
                            {
                                OFFSET  -7.899780   0.000000  -1.078090
                                CHANNELS 3 Zrotation Xrotation Yrotation
                                JOINT RightFinger31
                                {
                                    OFFSET  -4.646920   0.000000   0.000000
                                    CHANNELS 3 Zrotation Xrotation Yrotation
                                    JOINT RightFinger32
                                    {
                                        OFFSET  -2.323470   0.000000   0.000000
                                        CHANNELS 3 Zrotation Xrotation Yrotation
                                        End Site
                                        {
                                            OFFSET  -2.273050   0.000000   0.000000
                                        }
                                    }
                                }
                            }
                            JOINT RightFinger4
                            {
                                OFFSET  -7.435090   0.000000  -3.252850
                                CHANNELS 3 Zrotation Xrotation Yrotation
                                JOINT RightFinger41
                                {
                                    OFFSET  -3.717550   0.000000   0.000000
                                    CHANNELS 3 Zrotation Xrotation Yrotation
                                    JOINT RightFinger42
                                    {
                                        OFFSET  -1.858770   0.000000   0.000000
                                        CHANNELS 3 Zrotation Xrotation Yrotation
                                        End Site
                                        {
                                            OFFSET  -1.818440   0.000000   0.000000
                                        }
                                    }
                                }
                            }
                        }
                    }
                }
            }
        }
    }
    JOINT LeftHip
    {
        OFFSET   9.783010   0.000000   0.000000
        CHANNELS 3 Zrotation Xrotation Yrotation
        JOINT LeftKnee
        {
            OFFSET   0.000070 -41.789100   0.000028
            CHANNELS 3 Zrotation Xrotation Yrotation
            JOINT LeftAnkle
            {
                OFFSET   0.000087 -41.133200  -0.000100
                CHANNELS 3 Zrotation Xrotation Yrotation
                JOINT LeftToe
                {
                    OFFSET   0.000000  -6.358960  14.674500
                    CHANNELS 3 Zrotation Xrotation Yrotation
                    End Site
                    {
                        OFFSET   0.000000   0.000000   3.913200
                    }
                }
            }
        }
    }
    JOINT RightHip
    {
        OFFSET  -9.783020   0.000000   0.000000
        CHANNELS 3 Zrotation Xrotation Yrotation
        JOINT RightKnee
        {
            OFFSET   0.000044 -41.789100  -0.000870
            CHANNELS 3 Zrotation Xrotation Yrotation
            JOINT RightAnkle
            {
                OFFSET  -0.000090 -41.133200  -0.000245
                CHANNELS 3 Zrotation Xrotation Yrotation
                JOINT RightToe
                {
                    OFFSET   0.000000  -6.358960  14.674500
                    CHANNELS 3 Zrotation Xrotation Yrotation
                    End Site
                    {
                        OFFSET   0.000000   0.000000   3.913200
                    }
                }
            }
        }
    }
}
MOTION
Frames: 4
Frame Time:   0.016667
 -0.048195  90.083100   0.589967  -2.702990  -1.936850   0.913412   0.969875   1.984010  -0.934823   1.973800   3.951640  -1.904840   3.030060   2.555810  -0.140910   5.005570   5.138930   6.271890  -4.624500  -0.879443   6.436230 -72.318400  22.391300   1.311940  -4.013990  -4.943040 -14.369700  15.282900   3.278080   8.542700  36.810800  18.925100 -60.176700 -17.213100  -0.000333   0.003933  -3.606560  -0.002239   0.002098 -26.354000   7.836480 -15.388200 -22.429700   0.000993   0.000172 -15.700800   0.000634   0.000305 -28.046900   4.335110  -8.076050 -34.671000   0.001343   0.001436 -23.090900   0.003027   0.001220 -25.611500   3.939580  -8.156560 -25.892000  -0.002921  -0.001963 -17.244100   0.002170  -0.000359 -29.377000   1.348770  -2.394450 -44.107600   0.003964  -0.002096 -29.375700   0.006492  -0.004096   8.433190   1.472950   8.365510  69.310000   8.229210  -4.496380   3.483170  -8.429800   9.658490 -13.930500  -7.380650   2.531510 -43.270300  31.790600  70.585300  11.354600   0.000566  -0.012718   0.677310  -0.000963  -0.000961  19.584600   0.110701   0.312498  16.024100  -0.000235   0.004143  11.216800  -0.006060   0.002823  20.728600  -1.318050  -3.476850  20.768300  -0.003942   0.001343  13.831700  -0.011953   0.000828  21.345500  -4.079100 -10.314300  21.714100  -0.002285   0.003610  14.461600   0.001051   0.001975  30.306000  -5.646000  -9.553250  46.167700   0.000068   0.008091  30.747600   0.004381   0.004302   3.040860   4.436060   0.089718  -0.142092   0.164654   9.577010  -5.225560  -4.512420   5.309690  -0.000000   0.000000  -0.000000   2.536260   3.608350 -11.046200  -0.035913   1.889580  -9.267640  -8.845200   0.828127  -1.004170   0.000000   0.000000   0.000000
 -0.062216  90.083000   0.590214  -2.710930  -2.005940   0.912947   0.971057   2.039290  -0.930764   1.977270   4.062230  -1.897790   3.043400   2.584720  -0.140896   5.028340   5.196920   6.187320  -4.647280  -0.931217   6.410770 -72.278900  22.679200   1.239000  -4.010780  -4.883710 -14.372400  15.232100   3.360210   8.548630  36.802200  18.857300 -60.117500 -17.229800  -0.000339   0.003908  -3.614870  -0.002238   0.002076 -26.549400   7.841540 -15.274900 -22.587600   0.000977   0.000145 -15.811400   0.000615   0.000286 -28.048600   4.308270  -8.026150 -34.659900   0.001376   0.001496 -23.083500   0.003030   0.001266 -25.662100   3.936860  -8.146570 -25.943600  -0.002907  -0.001949 -17.278400   0.002174  -0.000313 -29.414000   1.342840  -2.380300 -44.162600   0.003962  -0.002067 -29.412300   0.006479  -0.004070   8.450050   1.402920   8.395480  69.289300   8.381850  -4.423670   3.454130  -8.315130   9.690700 -13.804700  -7.086630   2.575060 -43.221500  31.762500  70.547300  11.399700   0.000522  -0.012728   0.699852  -0.000969  -0.000974  19.674200   0.105363   0.295555  16.097800  -0.000160   0.004144  11.268400  -0.006061   0.002825  20.812700  -1.350970  -3.541240  20.854500  -0.003944   0.001349  13.889100  -0.011950   0.000831  21.460200  -4.115830 -10.319900  21.832400  -0.002284   0.003603  14.540300   0.001054   0.001981  30.409600  -5.681070  -9.554220  46.326800   0.000092   0.008093  30.853600   0.004389   0.004308   3.049710   4.514910   0.123314  -0.128445   0.139553   9.565770  -5.238820  -4.494090   5.282800   0.000000   0.000000  -0.000000   2.552740   3.675390 -11.051800  -0.028731   1.885320  -9.263640  -8.856210   0.827738  -1.004470   0.000000   0.000000   0.000000
 -0.086447  90.082900   0.590617  -2.725690  -2.137230   0.909504   0.974312   2.138560  -0.924118   1.985100   4.260800  -1.886480   3.066610   2.630900  -0.140884   5.067990   5.289420   6.022060  -4.686330  -1.005380   6.375260 -72.215100  23.126400   1.098590  -4.009270  -4.782240 -14.398300  15.155000   3.447800   8.585930  36.753700  18.718300 -60.016700 -17.341600  -0.000350   0.003865  -3.670780  -0.002236   0.002019 -26.759100   7.851690 -15.161700 -22.749400   0.000936   0.000078 -15.924600   0.000570   0.000228 -28.057700   4.240540  -7.899260 -34.648900   0.001450   0.001632 -23.076100   0.003037   0.001370 -25.719300   3.917790  -8.076640 -25.995200  -0.002870  -0.001914 -17.312800   0.002183  -0.000238 -29.451000   1.336920  -2.366150 -44.217700   0.003960  -0.002003 -29.449000   0.006445  -0.004013   8.473760   1.284020   8.445040  69.265700   8.596980  -4.303150   3.380450  -8.105530   9.819660 -13.541500  -6.573610   2.617440 -43.183900  31.707700  70.530500  11.641300   0.000461  -0.012752   0.820677  -0.000980  -0.000999  19.829500   0.100025   0.278611  16.225200  -0.000085   0.004148  11.357600  -0.006065   0.002830  20.960600  -1.383890  -3.605640  21.004500  -0.003947   0.001364  13.989000  -0.011943   0.000841  21.669300  -4.152560 -10.325600  22.046000  -0.002282   0.003587  14.682600   0.001061   0.001995  30.605500  -5.716130  -9.555200  46.627400   0.000127   0.008098  31.053800   0.004409   0.004324   3.066750   4.663730   0.179147  -0.105956   0.097557   9.549940  -5.260860  -4.464470   5.240000  -0.000000   0.000000   0.000000   2.584580   3.803240 -11.060300  -0.021164   1.878540  -9.253980  -8.874850   0.826558  -1.004970   0.000000   0.000000   0.000000
 -0.107712  90.082900   0.590987  -2.740740  -2.275140   0.897955   0.979200   2.232850  -0.918932   1.996150   4.449370  -1.878070   3.089040   2.664090  -0.142434   5.107430   5.355500   5.849180  -4.717670  -1.043110   6.360480 -72.168100  23.409400   0.948775  -4.016550  -4.673730 -14.457200  15.126600   3.453840   8.658900  36.657600  18.555000 -59.957600 -17.582400  -0.000370   0.003828  -3.791200  -0.002239   0.001923 -26.749700   7.889570 -15.227700 -22.752000   0.000872  -0.000030 -15.926400   0.000506   0.000121 -28.076700   4.153920  -7.735940 -34.718500   0.001557   0.001827 -23.122500   0.003046   0.001518 -25.671200   3.840170  -7.917000 -25.940000  -0.002807  -0.001860 -17.276000   0.002197  -0.000168 -29.359800   1.351180  -2.400500 -44.082400   0.003959  -0.001916 -29.358900   0.006393  -0.003933   8.486370   1.179980   8.484450  69.276500   8.693990  -4.210470   3.264110  -7.861350  10.058300 -13.218300  -6.127660   2.603200 -43.056800  31.683900  70.652800  12.251300   0.000436  -0.012788   1.125660  -0.000989  -0.001022  19.968900   0.124049   0.342497  16.339400  -0.000257   0.004157  11.437600  -0.006073   0.002836  21.098300  -1.378330  -3.572150  21.141700  -0.003953   0.001389  14.080300  -0.011931   0.000856  21.895400  -4.144400 -10.217500  22.267900  -0.002280   0.003564  14.830400   0.001073   0.002016  30.830800  -5.691270  -9.449530  46.955700   0.000143   0.008106  31.272400   0.004441   0.004350   3.085260   4.822430   0.223640  -0.088050   0.055083   9.543980  -5.278580  -4.437610   5.207690   0.000000   0.000000  -0.000000   2.618960   3.938820 -11.065600  -0.021465   1.872730  -9.238970  -8.890370   0.824235  -1.005460   0.000000   0.000000   0.000000
